<svg width="115" height="115" viewBox="0 0 115 115" fill="none" xmlns="http://www.w3.org/2000/svg">
<g clip-path="url(#clip0_16_527)">
<path d="M111.881 66.9398C111.881 96.9041 87.5898 115 57.6255 115C27.6603 115 3.36914 90.7089 3.36914 60.7437C3.36914 30.7794 28.4192 12.3571 58.3836 12.3571C88.3488 12.3571 111.881 36.9746 111.881 66.9398Z" fill="#DC3E22"/>
<path d="M81.185 36.2439C78.5489 33.5598 74.284 31.0639 71.1081 30.3341C72.8534 28.7865 73.2046 28.7355 75.391 27.6522C80.9932 24.8793 89.2913 24.624 89.2913 24.624C89.2913 24.624 79.497 19.5621 72.3358 19.8797C70.5127 19.9599 68.5898 20.604 66.7346 21.5166C67.7807 20.0403 68.7719 18.5725 69.4056 17.4698C71.3442 14.0981 73.3822 9.85057 73.3822 9.85057C73.3822 9.85057 65.8733 10.2515 62.3903 14.42C61.0676 16.0036 60.0691 18.0155 59.3384 19.9029C58.0406 18.4121 56.6082 17.0845 55.1756 16.0481C48.0129 10.8645 36.5683 11.986 36.5683 11.986C36.5683 11.986 45.2138 16.8902 49.1036 21.7826C50.6224 23.6932 52.1638 24.5767 53.0852 26.7189C49.9003 26.0293 42.7142 26.265 39.1867 27.5729C30.1222 30.9348 26.2164 44.4617 26.2164 44.4617C26.2164 44.4617 35.0618 38.3648 47.0968 34.0876C49.743 33.1475 52.5406 32.8983 54.9789 32.9411C53.872 34.6654 52.6628 36.9045 51.7478 39.5446C49.5215 45.9724 52.4634 61.2701 52.4634 61.2701C52.4634 61.2701 58.9082 52.2234 61.5343 44.8951C62.8821 41.1335 63.2157 37.3568 63.2231 34.5698C65.6131 35.6302 68.4281 37.1793 70.5319 38.5193C81.3038 45.3826 86.4576 57.9127 86.4576 57.9127C86.4576 57.9127 87.9585 43.1422 81.185 36.2439Z" fill="#899441"/>
<path d="M58.9395 29.6396C58.9053 29.6396 58.8711 29.6388 58.8368 29.6379C56.7066 29.5826 55.0246 27.8121 55.0764 25.6835C55.0808 25.4993 55.2668 12.5386 48.067 6.90318C46.3877 5.58886 46.0911 3.16203 47.4054 1.48184C48.7206 -0.197465 51.1475 -0.49402 52.8268 0.821175C63.1229 8.87817 62.8158 25.1887 62.7982 25.8792C62.7429 27.9761 61.025 29.6396 58.9395 29.6396Z" fill="#A8B64F"/>
<circle cx="41.5" cy="64.5" r="2.5" fill="black"/>
<g filter="url(#filter0_f_16_527)">
<circle cx="29.5" cy="75.5" r="5.5" fill="#EA8979"/>
</g>
<g filter="url(#filter1_f_16_527)">
<circle cx="85.5" cy="75.5" r="5.5" fill="#EA8979"/>
</g>
<circle cx="73.5" cy="64.5" r="2.5" fill="black"/>
<path d="M46 78C50 82 64.5 83 68.5 78" stroke="black"/>
</g>
<defs>
<filter id="filter0_f_16_527" x="20" y="66" width="19" height="19" filterUnits="userSpaceOnUse" color-interpolation-filters="sRGB">
<feFlood flood-opacity="0" result="BackgroundImageFix"/>
<feBlend mode="normal" in="SourceGraphic" in2="BackgroundImageFix" result="shape"/>
<feGaussianBlur stdDeviation="2" result="effect1_foregroundBlur_16_527"/>
</filter>
<filter id="filter1_f_16_527" x="76" y="66" width="19" height="19" filterUnits="userSpaceOnUse" color-interpolation-filters="sRGB">
<feFlood flood-opacity="0" result="BackgroundImageFix"/>
<feBlend mode="normal" in="SourceGraphic" in2="BackgroundImageFix" result="shape"/>
<feGaussianBlur stdDeviation="2" result="effect1_foregroundBlur_16_527"/>
</filter>
<clipPath id="clip0_16_527">
<rect width="115" height="115" fill="white"/>
</clipPath>
</defs>
</svg>
